HIERARCHY
ROOT Pelvis
{
	OFFSET 0.000000 0.941512 0.000000
	CHANNELS 6 Xposition Yposition Zposition Zrotation Yrotation Xrotation 
	JOINT Pelvis_L_Hip
	{
		OFFSET 0.000000 0.000000 0.000000
		CHANNELS 3 Zrotation Yrotation Xrotation
		JOINT L_Hip
		{
			OFFSET 0.062321 -0.080322 -0.016990
			CHANNELS 3 Zrotation Yrotation Xrotation
			JOINT L_Knee
			{
				OFFSET 0.093051 -0.381305 -0.029784
				CHANNELS 3 Zrotation Yrotation Xrotation
				JOINT L_Ankle
				{
					OFFSET -0.010371 -0.431000 -0.033614
					CHANNELS 3 Zrotation Yrotation Xrotation
					End Site #name: L_Foot
					{
						OFFSET 0.069299 -0.038670 0.119418
					}
				}
			}
		}
	}
	JOINT Pelvis_R_Hip
	{
		OFFSET 0.000000 0.000000 0.000000
		CHANNELS 3 Zrotation Yrotation Xrotation
		JOINT R_Hip
		{
			OFFSET -0.055334 -0.094904 -0.002373
			CHANNELS 3 Zrotation Yrotation Xrotation
			JOINT R_Knee
			{
				OFFSET -0.064207 -0.384370 -0.019592
				CHANNELS 3 Zrotation Yrotation Xrotation
				JOINT R_Ankle
				{
					OFFSET 0.025418 -0.419734 -0.065953
					CHANNELS 3 Zrotation Yrotation Xrotation
					End Site #name: R_Foot
					{
						OFFSET -0.057233 -0.039888 0.132134
					}
				}
			}
		}
	}
	JOINT Pelvis_Spine1
	{
		OFFSET 0.000000 0.000000 0.000000
		CHANNELS 3 Zrotation Yrotation Xrotation
		JOINT Spine1
		{
			OFFSET -0.005562 0.124093 -0.043360
			CHANNELS 3 Zrotation Yrotation Xrotation
			JOINT Spine2
			{
				OFFSET 0.012244 0.139499 0.029894
				CHANNELS 3 Zrotation Yrotation Xrotation
				JOINT Spine3
				{
					OFFSET -0.002556 0.056561 0.009225
					CHANNELS 3 Zrotation Yrotation Xrotation
					JOINT Spine3_Neck
					{
						OFFSET 0.000000 0.000000 0.000000
						CHANNELS 3 Zrotation Yrotation Xrotation
						JOINT Neck
						{
							OFFSET -0.005205 0.217920 -0.024551
							CHANNELS 3 Zrotation Yrotation Xrotation
							End Site #name: Head
							{
								OFFSET 0.002365 0.091850 0.046637
							}
						}
					}
					JOINT Spine3_L_Collar
					{
						OFFSET 0.000000 0.000000 0.000000
						CHANNELS 3 Zrotation Yrotation Xrotation
						JOINT L_Collar
						{
							OFFSET 0.072225 0.116603 -0.009480
							CHANNELS 3 Zrotation Yrotation Xrotation
							JOINT L_Shoulder
							{
								OFFSET 0.115937 -0.058643 -0.021018
								CHANNELS 3 Zrotation Yrotation Xrotation
								JOINT L_Elbow
								{
									OFFSET 0.021994 -0.254722 -0.024492
									CHANNELS 3 Zrotation Yrotation Xrotation
									End Site #name: L_Wrist
									{
										OFFSET 0.048810 -0.240214 0.103329
									}
								}
							}
						}
					}
					JOINT Spine3_R_Collar
					{
						OFFSET 0.000000 0.000000 0.000000
						CHANNELS 3 Zrotation Yrotation Xrotation
						JOINT R_Collar
						{
							OFFSET -0.073372 0.120704 -0.024611
							CHANNELS 3 Zrotation Yrotation Xrotation
							JOINT R_Shoulder
							{
								OFFSET -0.108089 -0.054969 -0.020504
								CHANNELS 3 Zrotation Yrotation Xrotation
								JOINT R_Elbow
								{
									OFFSET -0.033684 -0.260739 0.009889
									CHANNELS 3 Zrotation Yrotation Xrotation
									End Site #name: R_Wrist
									{
										OFFSET -0.067980 -0.232763 0.118463
									}
								}
							}
						}
					}
				}
			}
		}
	}
}
MOTION
Frames: 17
Frame Time: 0.041667
0.008804 0.933999 1.348868 -2.054582 -4.240729 -4.060327 0.000000 0.000000 0.000000 -3.094307 -4.795048 -18.654032 -4.009540 1.949207 56.179265 -0.805958 -3.300421 -0.409501 0.000000 0.000000 0.000000 8.330350 1.600720 -8.144306 -1.658095 2.160300 21.685309 -3.297696 -0.738840 -6.975439 0.000000 0.000000 0.000000 5.743882 -1.600637 2.999933 -3.702858 0.255097 -4.567253 -0.766627 -0.141619 7.636629 0.000000 0.000000 0.000000 -3.370264 2.028366 9.881453 0.000000 0.000000 0.000000 22.268653 -9.870246 -3.616973 -18.269873 1.154088 -3.612435 -24.925639 -40.698974 -48.281743 0.000000 0.000000 0.000000 -34.300274 8.948417 -0.102454 18.421735 1.649752 -4.083370 -23.464837 -8.643986 -63.652904 
0.000379 0.929161 1.358771 -2.465702 -6.236166 -5.542768 0.000000 0.000000 0.000000 -0.572044 -5.294368 -22.009062 -5.727154 4.114263 63.788577 -0.555326 -1.466098 0.149396 0.000000 0.000000 0.000000 9.681262 1.413507 -7.152868 -1.877203 2.588774 24.037168 -4.026935 -0.386545 -8.677905 0.000000 0.000000 0.000000 5.570555 -1.703133 4.315310 -3.335204 0.256999 -3.933329 -0.694303 -0.535175 6.779106 0.000000 0.000000 0.000000 -4.223087 2.656742 10.102057 0.000000 0.000000 0.000000 21.278302 -10.965277 -4.782768 -15.820082 1.063806 -3.117063 -23.593625 -31.774331 -38.165757 0.000000 0.000000 0.000000 -33.116409 10.367476 -1.268897 20.555403 0.908186 -1.253971 -18.763934 -0.180197 -68.027492 
-0.004457 0.924079 1.365722 -2.313650 -7.221569 -6.808451 0.000000 0.000000 0.000000 -0.210635 -5.881918 -24.880415 -4.831432 3.946918 66.859606 1.953876 1.603521 -2.598383 0.000000 0.000000 0.000000 10.255500 1.361318 -6.808177 -1.975900 2.999284 26.698715 -4.774148 -0.594400 -10.181241 0.000000 0.000000 0.000000 4.834245 -1.708359 6.043901 -3.086555 0.202816 -4.287233 -0.760715 -1.372193 6.703073 0.000000 0.000000 0.000000 -4.324988 2.777457 9.905528 0.000000 0.000000 0.000000 20.914389 -12.661431 -6.320925 -12.975593 0.805051 -3.258893 -19.508942 -23.238790 -30.516260 0.000000 0.000000 0.000000 -31.090589 10.838112 -1.702312 22.695546 0.464014 0.338942 -13.430600 9.157191 -67.919123 
-0.008302 0.920134 1.369865 -2.532687 -8.404582 -7.437284 0.000000 0.000000 0.000000 1.775144 -6.069051 -27.643276 -5.021353 4.219616 65.136912 1.180141 -0.366428 -2.306232 0.000000 0.000000 0.000000 10.932481 1.375816 -6.738286 -1.919448 3.260802 28.315375 -5.245605 -0.267134 -11.298176 0.000000 0.000000 0.000000 3.999584 -1.660418 7.775857 -2.570898 0.152779 -4.084638 -0.224046 -2.055634 6.224896 0.000000 0.000000 0.000000 -4.863919 3.146077 9.336708 0.000000 0.000000 0.000000 21.164469 -13.438029 -7.130611 -10.610620 0.553216 -3.554416 -13.172856 -16.127695 -26.751473 0.000000 0.000000 0.000000 -29.581623 11.732949 -2.468885 24.661003 0.128748 1.509017 -8.228637 16.213867 -64.195440 
-0.010133 0.920000 1.374084 -3.187574 -9.361178 -7.910817 0.000000 0.000000 0.000000 4.160965 -5.817295 -29.134507 -6.175084 4.640742 59.414746 1.144066 0.871784 -1.567115 0.000000 0.000000 0.000000 11.822812 1.108270 -5.635037 -2.131770 3.344813 27.817960 -5.299399 0.376086 -11.628358 0.000000 0.000000 0.000000 3.656742 -1.722146 9.479207 -1.944025 0.111513 -3.429402 0.728937 -1.877338 6.007156 0.000000 0.000000 0.000000 -6.012741 3.818323 8.412835 0.000000 0.000000 0.000000 21.277010 -13.942609 -7.595841 -7.343797 0.302714 -3.447700 -8.108016 -12.116444 -26.646906 0.000000 0.000000 0.000000 -28.695719 12.944170 -3.644055 26.302381 -0.674210 3.805771 -4.394322 19.765654 -59.770464 
-0.007692 0.922378 1.379315 -3.431315 -9.169094 -7.467777 0.000000 0.000000 0.000000 5.099151 -5.865382 -30.530033 -7.158717 4.479984 52.623498 -1.138059 1.215425 2.771183 0.000000 0.000000 0.000000 11.783297 0.960387 -5.140456 -2.198234 3.174237 26.443492 -5.093063 0.537835 -11.259526 0.000000 0.000000 0.000000 3.504139 -1.805729 10.687146 -1.748441 0.057909 -3.950577 1.554584 -1.597539 6.105432 0.000000 0.000000 0.000000 -7.067130 4.425973 7.960870 0.000000 0.000000 0.000000 22.208707 -14.001824 -7.616667 -4.865290 0.212579 -2.537549 -5.033396 -10.678434 -29.459291 0.000000 0.000000 0.000000 -29.099538 13.591038 -4.286111 28.370891 -1.677630 6.290647 -0.587600 21.670683 -53.825576 
-0.001260 0.925147 1.386639 -2.940971 -8.529099 -6.288725 0.000000 0.000000 0.000000 3.696521 -6.294629 -30.987657 -6.730822 3.655213 47.463855 -3.055077 2.354999 6.949022 0.000000 0.000000 0.000000 10.785435 1.054407 -5.642347 -2.434391 3.110915 25.466835 -4.933185 0.396910 -10.880695 0.000000 0.000000 0.000000 3.265410 -1.739127 10.534788 -1.879503 0.016649 -5.007012 1.957403 -1.297157 6.487875 0.000000 0.000000 0.000000 -7.378212 4.627137 8.205503 0.000000 0.000000 0.000000 23.167180 -13.334382 -7.001313 -3.597620 0.112229 -2.423659 -2.350582 -9.399580 -32.321867 0.000000 0.000000 0.000000 -29.855389 13.434407 -4.175914 29.280781 -2.329225 7.747916 3.642550 22.785157 -46.708384 
0.007404 0.926745 1.396091 -2.218554 -8.206924 -5.292656 0.000000 0.000000 0.000000 0.744006 -6.458572 -28.598734 -4.368764 2.146743 43.784914 -2.615860 1.451251 5.608331 0.000000 0.000000 0.000000 9.266309 1.299981 -6.775035 -2.478810 3.227674 26.277557 -4.896185 0.504801 -10.874558 0.000000 0.000000 0.000000 2.905229 -1.575799 9.865142 -1.844317 -0.045533 -6.109815 2.276808 -0.577773 6.894805 0.000000 0.000000 0.000000 -7.096123 4.490372 8.934235 0.000000 0.000000 0.000000 23.619995 -12.136772 -5.894805 -3.740917 -0.051627 -3.930900 -0.210835 -8.206767 -34.416197 0.000000 0.000000 0.000000 -30.542205 13.325749 -4.158876 28.847159 -2.778520 8.857439 6.641279 22.675562 -40.828627 
0.018252 0.926200 1.402515 -0.930603 -8.155022 -4.193146 0.000000 0.000000 0.000000 -2.424900 -6.311303 -25.412813 -1.840946 0.717862 37.830436 -0.875679 -0.478879 1.315006 0.000000 0.000000 0.000000 6.522522 2.056554 -10.353285 -0.905121 3.175525 30.966269 -5.184003 -0.180118 -11.209687 0.000000 0.000000 0.000000 2.169565 -1.334659 9.631061 -1.902546 -0.151255 -8.334066 2.684677 0.533384 8.224008 0.000000 0.000000 0.000000 -7.073537 4.389985 8.195817 0.000000 0.000000 0.000000 23.616730 -10.409237 -4.316112 -4.719100 -0.483710 -8.067827 0.625139 -7.700084 -35.242362 0.000000 0.000000 0.000000 -30.943877 12.904858 -3.923503 27.649030 -2.986105 9.423313 7.993031 22.351649 -37.916017 
0.027624 0.923975 1.402884 0.360427 -7.679181 -3.026795 0.000000 0.000000 0.000000 -4.340934 -6.328115 -24.227572 -1.792258 0.528662 32.974003 0.355730 -0.057426 -0.690940 0.000000 0.000000 0.000000 3.605575 2.935330 -15.232521 2.168692 2.370323 37.259042 -5.509975 -3.174443 -10.530037 0.000000 0.000000 0.000000 1.624555 -1.128429 9.016126 -2.209311 -0.171672 -9.207499 2.562743 0.993929 8.858009 0.000000 0.000000 0.000000 -6.819717 4.177060 7.745204 0.000000 0.000000 0.000000 23.237203 -9.700333 -3.649742 -5.838009 -0.929233 -11.815813 1.918247 -6.920400 -36.580050 0.000000 0.000000 0.000000 -30.937101 12.659849 -3.833912 26.697094 -2.722240 8.839549 8.029384 20.960957 -35.571619 
0.035200 0.921209 1.399356 1.300081 -6.568294 -2.675476 0.000000 0.000000 0.000000 -5.712726 -6.124816 -22.598082 -1.839804 0.354847 28.227195 0.734656 -0.788383 -1.800057 0.000000 0.000000 0.000000 1.087114 3.463174 -19.193676 5.741651 0.766362 43.655309 -6.339955 -8.256995 -9.795685 0.000000 0.000000 0.000000 1.607088 -1.182458 9.493612 -2.876208 -0.182886 -10.169725 2.343039 1.248633 9.022433 0.000000 0.000000 0.000000 -6.696131 4.032515 7.317259 0.000000 0.000000 0.000000 22.581997 -10.117400 -3.873250 -8.564843 -1.468676 -15.425262 4.468157 -4.813665 -37.132307 0.000000 0.000000 0.000000 -30.651058 12.636442 -4.058255 26.082109 -2.679873 8.846236 6.188634 18.602728 -34.808900 
0.039942 0.918371 1.391238 2.116790 -4.909480 -2.778875 0.000000 0.000000 0.000000 -6.574477 -6.049694 -21.738287 -2.356652 0.369237 24.967990 0.518260 -1.617705 -1.842271 0.000000 0.000000 0.000000 -0.540553 3.692732 -21.801836 8.470654 -0.959931 51.671064 -6.960337 -12.050589 -9.148222 0.000000 0.000000 0.000000 1.287281 -1.194515 10.398247 -3.238411 -0.259287 -11.540725 2.138478 1.586711 9.404146 0.000000 0.000000 0.000000 -6.531981 3.849854 6.788004 0.000000 0.000000 0.000000 21.888425 -10.596476 -4.084391 -12.868659 -2.672255 -21.097259 7.793843 -1.615717 -35.400605 0.000000 0.000000 0.000000 -30.492058 12.043845 -3.825375 25.763062 -2.785276 9.175449 3.122503 15.652713 -35.182227 
0.042124 0.915778 1.378373 2.755369 -3.149252 -2.654312 0.000000 0.000000 0.000000 -7.258934 -6.290255 -22.068401 -2.550651 0.316953 23.141454 -0.141743 -2.208994 -0.976358 0.000000 0.000000 0.000000 -0.737474 3.933064 -23.658186 8.925871 -1.675474 60.452234 -6.331567 -12.831196 -6.817642 0.000000 0.000000 0.000000 0.953427 -1.176264 10.924479 -3.429466 -0.371555 -13.068911 1.966918 2.044918 10.092298 0.000000 0.000000 0.000000 -6.519201 3.808502 7.022923 0.000000 0.000000 0.000000 21.191047 -10.961547 -4.190192 -16.533944 -4.321222 -27.120326 9.827906 0.488829 -32.368310 0.000000 0.000000 0.000000 -30.711300 11.169222 -3.329269 25.016959 -2.966793 9.772571 -0.056259 13.119915 -36.764240 
0.041666 0.913801 1.361639 3.496083 -1.858075 -2.461807 0.000000 0.000000 0.000000 -7.993979 -6.637815 -22.731860 -2.222360 0.160731 21.638978 -1.191361 -2.917727 0.448495 0.000000 0.000000 0.000000 -0.145227 4.051540 -24.051089 6.980160 -0.374213 66.292816 -4.671081 -10.713133 -3.729965 0.000000 0.000000 0.000000 0.417868 -1.040746 10.968965 -3.538101 -0.432346 -13.741344 1.766165 2.321802 10.349953 0.000000 0.000000 0.000000 -6.826293 3.954180 6.922423 0.000000 0.000000 0.000000 20.959046 -11.505995 -4.492999 -18.952091 -5.391991 -30.039313 9.840041 0.695780 -30.630314 0.000000 0.000000 0.000000 -31.307878 10.615942 -2.995387 23.481422 -3.030062 10.283719 -3.133048 10.579466 -38.377869 
0.036861 0.911378 1.340354 3.512048 -1.096790 -1.731857 0.000000 0.000000 0.000000 -7.360882 -7.032066 -24.250729 -2.082799 0.093342 20.178079 -2.521076 -3.313974 2.453489 0.000000 0.000000 0.000000 1.658572 4.234683 -23.553984 3.139326 2.786814 66.347756 -1.313121 -5.717656 1.162612 0.000000 0.000000 0.000000 0.417270 -0.966800 9.904970 -3.558598 -0.381575 -12.886643 1.507322 2.270986 9.695572 0.000000 0.000000 0.000000 -7.165827 4.126762 6.814143 0.000000 0.000000 0.000000 20.529659 -12.495222 -5.254193 -19.846965 -5.377292 -29.262005 9.690267 0.564098 -30.629885 0.000000 0.000000 0.000000 -31.785039 10.526778 -2.965006 20.912820 -2.759373 10.152152 -6.139063 7.840854 -39.595827 
0.028537 0.909077 1.316237 3.657087 -0.810591 -1.332159 0.000000 0.000000 0.000000 -7.257854 -7.240451 -24.958151 -0.815922 -0.209955 17.605304 -4.199044 -3.577853 5.054840 0.000000 0.000000 0.000000 3.067776 3.850721 -20.533338 -1.610109 6.036795 59.573802 0.187868 3.054139 -1.582132 0.000000 0.000000 0.000000 0.345607 -0.877951 9.085418 -4.102971 -0.270117 -11.761106 1.262297 1.966934 9.060882 0.000000 0.000000 0.000000 -7.271874 4.185987 6.857905 0.000000 0.000000 0.000000 20.146526 -12.934210 -5.640713 -19.765021 -4.798089 -26.982272 9.028611 -0.042790 -31.248559 0.000000 0.000000 0.000000 -31.780513 10.563055 -2.972278 17.965380 -2.194315 9.029074 -7.776940 6.363941 -40.463269 
0.018430 0.908665 1.286525 3.348011 -0.683017 -0.521077 0.000000 0.000000 0.000000 -6.280447 -7.378094 -25.974982 0.487788 -0.430840 14.185372 -7.054646 -4.013484 9.362392 0.000000 0.000000 0.000000 3.731413 3.508550 -18.437734 -3.079621 6.105588 52.248646 -2.258072 4.017659 -7.525093 0.000000 0.000000 0.000000 0.727671 -0.922490 8.275715 -4.514380 -0.172921 -10.851051 0.943447 1.834672 8.605057 0.000000 0.000000 0.000000 -7.113818 4.062996 6.464485 0.000000 0.000000 0.000000 19.230631 -12.634178 -5.460366 -19.413237 -4.171577 -24.643761 7.957322 -0.995901 -31.873923 0.000000 0.000000 0.000000 -31.497461 10.698046 -3.118797 15.073315 -1.513367 7.169231 -9.491162 4.681003 -41.049285 
